<svg xmlns="http://www.w3.org/2000/svg" xmlns:xlink="http://www.w3.org/1999/xlink" width="100" zoomAndPan="magnify" viewBox="0 0 75 60" height="80" preserveAspectRatio="xMidYMid meet" version="1.0"><defs><g/><clipPath id="ede7e36152"><path d="M 8.878906 20.847656 L 25.378906 20.847656 L 25.378906 37.347656 L 8.878906 37.347656 Z M 8.878906 20.847656 " clip-rule="nonzero"/></clipPath></defs><g clip-path="url(#ede7e36152)"><path fill="#ffffff" d="M 17.296875 37.683594 C 16.761719 33.28125 13.285156 29.804688 8.878906 29.269531 C 13.285156 28.730469 16.761719 25.257812 17.296875 20.847656 C 17.835938 25.257812 21.308594 28.730469 25.71875 29.269531 C 21.308594 29.804688 17.832031 33.28125 17.296875 37.683594 Z M 17.296875 37.683594 " fill-opacity="1" fill-rule="nonzero"/></g><g fill="#ffffff" fill-opacity="1"><g transform="translate(26.642674, 33.000001)"><g><path d="M 7 -7.859375 L 3.265625 -7.859375 L 3.265625 -5.6875 L 6.640625 -5.6875 L 6.640625 -3.765625 L 3.265625 -3.765625 L 3.265625 0 L 1.125 0 L 1.125 -9.84375 L 7 -9.84375 Z M 7 -7.859375 "/></g></g></g><g fill="#ffffff" fill-opacity="1"><g transform="translate(33.49043, 33.000001)"><g><path d="M 0.984375 0 L 0.984375 -10.328125 L 3.03125 -10.328125 L 3.03125 0 Z M 0.984375 0 "/></g></g></g><g fill="#ffffff" fill-opacity="1"><g transform="translate(36.836637, 33.000001)"><g><path d="M 6.234375 -7.59375 L 8.421875 -7.59375 L 5.109375 -0.09375 C 4.804688 0.582031 4.5 1.128906 4.1875 1.546875 C 3.875 1.960938 3.519531 2.265625 3.125 2.453125 C 2.738281 2.640625 2.257812 2.734375 1.6875 2.734375 L 0.84375 2.734375 L 0.84375 0.890625 L 1.5625 0.890625 C 1.882812 0.890625 2.140625 0.847656 2.328125 0.765625 C 2.523438 0.691406 2.691406 0.554688 2.828125 0.359375 C 2.960938 0.160156 3.113281 -0.128906 3.28125 -0.515625 L 3.296875 -0.578125 L 0.078125 -7.59375 L 2.3125 -7.59375 L 4.34375 -2.921875 Z M 6.234375 -7.59375 "/></g></g></g><g fill="#ffffff" fill-opacity="1"><g transform="translate(44.626586, 33.000001)"><g><path d="M 4.59375 0.203125 C 3.8125 0.203125 3.109375 0.03125 2.484375 -0.3125 C 1.867188 -0.664062 1.378906 -1.144531 1.015625 -1.75 C 0.660156 -2.351562 0.484375 -3.035156 0.484375 -3.796875 C 0.484375 -4.566406 0.660156 -5.253906 1.015625 -5.859375 C 1.378906 -6.460938 1.867188 -6.9375 2.484375 -7.28125 C 3.109375 -7.625 3.8125 -7.796875 4.59375 -7.796875 C 5.375 -7.796875 6.070312 -7.625 6.6875 -7.28125 C 7.3125 -6.9375 7.800781 -6.460938 8.15625 -5.859375 C 8.507812 -5.253906 8.6875 -4.566406 8.6875 -3.796875 C 8.6875 -3.035156 8.507812 -2.351562 8.15625 -1.75 C 7.800781 -1.144531 7.3125 -0.664062 6.6875 -0.3125 C 6.070312 0.03125 5.375 0.203125 4.59375 0.203125 Z M 4.59375 -1.71875 C 5.1875 -1.71875 5.671875 -1.910156 6.046875 -2.296875 C 6.421875 -2.679688 6.609375 -3.179688 6.609375 -3.796875 C 6.609375 -4.410156 6.421875 -4.910156 6.046875 -5.296875 C 5.671875 -5.679688 5.1875 -5.875 4.59375 -5.875 C 4 -5.875 3.515625 -5.679688 3.140625 -5.296875 C 2.765625 -4.910156 2.578125 -4.410156 2.578125 -3.796875 C 2.578125 -3.179688 2.765625 -2.679688 3.140625 -2.296875 C 3.515625 -1.910156 4 -1.71875 4.59375 -1.71875 Z M 4.59375 -1.71875 "/></g></g></g><g fill="#ffffff" fill-opacity="1"><g transform="translate(53.133711, 33.000001)"><g><path d="M 5.3125 -7.78125 C 6.175781 -7.78125 6.859375 -7.488281 7.359375 -6.90625 C 7.859375 -6.332031 8.109375 -5.5625 8.109375 -4.59375 L 8.109375 0 L 6.0625 0 L 6.0625 -4.28125 C 6.0625 -5.40625 5.617188 -5.96875 4.734375 -5.96875 C 4.210938 -5.96875 3.796875 -5.789062 3.484375 -5.4375 C 3.179688 -5.082031 3.03125 -4.601562 3.03125 -4 L 3.03125 0 L 0.984375 0 L 0.984375 -7.59375 L 2.390625 -7.59375 L 2.796875 -6.65625 C 3.078125 -7 3.4375 -7.269531 3.875 -7.46875 C 4.320312 -7.675781 4.800781 -7.78125 5.3125 -7.78125 Z M 5.3125 -7.78125 "/></g></g></g><g fill="#ffffff" fill-opacity="1"><g transform="translate(61.472094, 33.000001)"><g><path d="M 8.359375 -3.828125 C 8.359375 -3.628906 8.34375 -3.425781 8.3125 -3.21875 L 2.578125 -3.21875 C 2.660156 -2.707031 2.863281 -2.3125 3.1875 -2.03125 C 3.519531 -1.75 3.929688 -1.609375 4.421875 -1.609375 C 4.785156 -1.609375 5.109375 -1.6875 5.390625 -1.84375 C 5.671875 -2 5.882812 -2.210938 6.03125 -2.484375 L 8.203125 -2.484375 C 7.921875 -1.660156 7.441406 -1.003906 6.765625 -0.515625 C 6.085938 -0.0351562 5.304688 0.203125 4.421875 0.203125 C 3.671875 0.203125 3 0.03125 2.40625 -0.3125 C 1.8125 -0.664062 1.34375 -1.144531 1 -1.75 C 0.65625 -2.351562 0.484375 -3.035156 0.484375 -3.796875 C 0.484375 -4.554688 0.65625 -5.238281 1 -5.84375 C 1.34375 -6.445312 1.8125 -6.921875 2.40625 -7.265625 C 3 -7.617188 3.671875 -7.796875 4.421875 -7.796875 C 5.203125 -7.796875 5.890625 -7.613281 6.484375 -7.25 C 7.078125 -6.894531 7.535156 -6.414062 7.859375 -5.8125 C 8.191406 -5.21875 8.359375 -4.554688 8.359375 -3.828125 Z M 4.421875 -6.0625 C 3.960938 -6.0625 3.578125 -5.929688 3.265625 -5.671875 C 2.953125 -5.421875 2.738281 -5.070312 2.625 -4.625 L 6.296875 -4.625 C 5.992188 -5.582031 5.367188 -6.0625 4.421875 -6.0625 Z M 4.421875 -6.0625 "/></g></g></g></svg>