<svg xmlns="http://www.w3.org/2000/svg" xmlns:xlink="http://www.w3.org/1999/xlink" width="60" zoomAndPan="magnify" viewBox="0 0 45 37.5" height="50" preserveAspectRatio="xMidYMid meet" version="1.0"><defs><g/><clipPath id="87f1b558bd"><path d="M 1.644531 9.929688 L 17 9.929688 L 17 25.472656 L 1.644531 25.472656 Z M 1.644531 9.929688 " clip-rule="nonzero"/></clipPath></defs><g clip-path="url(#87f1b558bd)"><path fill="#ffffff" d="M 9.316406 25.273438 C 8.828125 21.261719 5.664062 18.09375 1.644531 17.605469 C 5.664062 17.113281 8.828125 13.949219 9.316406 9.933594 C 9.808594 13.949219 12.972656 17.113281 16.992188 17.605469 C 12.972656 18.09375 9.804688 21.261719 9.316406 25.273438 Z M 9.316406 25.273438 " fill-opacity="1" fill-rule="nonzero"/></g><g fill="#ffffff" fill-opacity="1"><g transform="translate(17.450748, 20.279605)"><g><path d="M 4.140625 -4.65625 L 1.9375 -4.65625 L 1.9375 -3.375 L 3.9375 -3.375 L 3.9375 -2.234375 L 1.9375 -2.234375 L 1.9375 0 L 0.671875 0 L 0.671875 -5.828125 L 4.140625 -5.828125 Z M 4.140625 -4.65625 "/></g></g></g><g fill="#ffffff" fill-opacity="1"><g transform="translate(21.50534, 20.279605)"><g><path d="M 0.578125 0 L 0.578125 -6.125 L 1.796875 -6.125 L 1.796875 0 Z M 0.578125 0 "/></g></g></g><g fill="#ffffff" fill-opacity="1"><g transform="translate(23.486647, 20.279605)"><g><path d="M 3.6875 -4.5 L 4.984375 -4.5 L 3.015625 -0.0625 C 2.835938 0.34375 2.65625 0.671875 2.46875 0.921875 C 2.289062 1.171875 2.082031 1.347656 1.84375 1.453125 C 1.613281 1.566406 1.332031 1.625 1 1.625 L 0.5 1.625 L 0.5 0.53125 L 0.921875 0.53125 C 1.117188 0.53125 1.273438 0.503906 1.390625 0.453125 C 1.503906 0.410156 1.597656 0.328125 1.671875 0.203125 C 1.753906 0.0859375 1.84375 -0.0820312 1.9375 -0.3125 L 1.953125 -0.34375 L 0.046875 -4.5 L 1.375 -4.5 L 2.578125 -1.734375 Z M 3.6875 -4.5 "/></g></g></g><g fill="#ffffff" fill-opacity="1"><g transform="translate(28.099117, 20.279605)"><g><path d="M 2.71875 0.125 C 2.257812 0.125 1.84375 0.0195312 1.46875 -0.1875 C 1.101562 -0.394531 0.816406 -0.675781 0.609375 -1.03125 C 0.398438 -1.394531 0.296875 -1.800781 0.296875 -2.25 C 0.296875 -2.707031 0.398438 -3.113281 0.609375 -3.46875 C 0.816406 -3.820312 1.101562 -4.101562 1.46875 -4.3125 C 1.84375 -4.519531 2.257812 -4.625 2.71875 -4.625 C 3.1875 -4.625 3.601562 -4.519531 3.96875 -4.3125 C 4.332031 -4.101562 4.617188 -3.820312 4.828125 -3.46875 C 5.035156 -3.113281 5.140625 -2.707031 5.140625 -2.25 C 5.140625 -1.800781 5.035156 -1.394531 4.828125 -1.03125 C 4.617188 -0.675781 4.332031 -0.394531 3.96875 -0.1875 C 3.601562 0.0195312 3.1875 0.125 2.71875 0.125 Z M 2.71875 -1.015625 C 3.070312 -1.015625 3.359375 -1.128906 3.578125 -1.359375 C 3.804688 -1.585938 3.921875 -1.882812 3.921875 -2.25 C 3.921875 -2.613281 3.804688 -2.910156 3.578125 -3.140625 C 3.359375 -3.367188 3.070312 -3.484375 2.71875 -3.484375 C 2.363281 -3.484375 2.078125 -3.367188 1.859375 -3.140625 C 1.640625 -2.910156 1.53125 -2.613281 1.53125 -2.25 C 1.53125 -1.882812 1.640625 -1.585938 1.859375 -1.359375 C 2.078125 -1.128906 2.363281 -1.015625 2.71875 -1.015625 Z M 2.71875 -1.015625 "/></g></g></g><g fill="#ffffff" fill-opacity="1"><g transform="translate(33.136231, 20.279605)"><g><path d="M 3.140625 -4.609375 C 3.660156 -4.609375 4.066406 -4.4375 4.359375 -4.09375 C 4.660156 -3.75 4.8125 -3.289062 4.8125 -2.71875 L 4.8125 0 L 3.59375 0 L 3.59375 -2.53125 C 3.59375 -3.207031 3.332031 -3.546875 2.8125 -3.546875 C 2.5 -3.546875 2.25 -3.4375 2.0625 -3.21875 C 1.882812 -3.007812 1.796875 -2.722656 1.796875 -2.359375 L 1.796875 0 L 0.578125 0 L 0.578125 -4.5 L 1.421875 -4.5 L 1.65625 -3.9375 C 1.820312 -4.144531 2.035156 -4.304688 2.296875 -4.421875 C 2.554688 -4.546875 2.835938 -4.609375 3.140625 -4.609375 Z M 3.140625 -4.609375 "/></g></g></g><g fill="#ffffff" fill-opacity="1"><g transform="translate(38.073432, 20.279605)"><g><path d="M 4.953125 -2.265625 C 4.953125 -2.148438 4.941406 -2.03125 4.921875 -1.90625 L 1.53125 -1.90625 C 1.570312 -1.601562 1.691406 -1.367188 1.890625 -1.203125 C 2.085938 -1.035156 2.332031 -0.953125 2.625 -0.953125 C 2.832031 -0.953125 3.019531 -1 3.1875 -1.09375 C 3.351562 -1.1875 3.484375 -1.3125 3.578125 -1.46875 L 4.859375 -1.46875 C 4.691406 -0.976562 4.40625 -0.585938 4 -0.296875 C 3.601562 -0.015625 3.144531 0.125 2.625 0.125 C 2.175781 0.125 1.773438 0.0195312 1.421875 -0.1875 C 1.078125 -0.394531 0.800781 -0.675781 0.59375 -1.03125 C 0.394531 -1.394531 0.296875 -1.800781 0.296875 -2.25 C 0.296875 -2.695312 0.394531 -3.097656 0.59375 -3.453125 C 0.800781 -3.816406 1.078125 -4.101562 1.421875 -4.3125 C 1.773438 -4.519531 2.175781 -4.625 2.625 -4.625 C 3.082031 -4.625 3.484375 -4.515625 3.828125 -4.296875 C 4.179688 -4.085938 4.457031 -3.804688 4.65625 -3.453125 C 4.851562 -3.097656 4.953125 -2.703125 4.953125 -2.265625 Z M 2.625 -3.59375 C 2.351562 -3.59375 2.125 -3.515625 1.9375 -3.359375 C 1.75 -3.210938 1.625 -3.003906 1.5625 -2.734375 L 3.734375 -2.734375 C 3.554688 -3.304688 3.1875 -3.59375 2.625 -3.59375 Z M 2.625 -3.59375 "/></g></g></g></svg>