<svg xmlns="http://www.w3.org/2000/svg" xmlns:xlink="http://www.w3.org/1999/xlink" width="1080" zoomAndPan="magnify" viewBox="0 0 810 1012.49997" height="1350" preserveAspectRatio="xMidYMid meet" version="1.0"><defs><g/><clipPath id="672dd534cf"><path d="M 16.445312 363.933594 L 300.554688 363.933594 L 300.554688 648.042969 L 16.445312 648.042969 Z M 16.445312 363.933594 " clip-rule="nonzero"/></clipPath></defs><g clip-path="url(#672dd534cf)"><path fill="#ffffff" d="M 158.507812 648.027344 C 149.425781 573.703125 90.828125 515.050781 16.445312 506.023438 C 90.828125 496.9375 149.425781 438.34375 158.507812 363.960938 C 167.589844 438.34375 226.1875 496.9375 300.566406 506.023438 C 226.1875 515.050781 167.535156 573.703125 158.507812 648.027344 Z M 158.507812 648.027344 " fill-opacity="1" fill-rule="nonzero"/></g><g fill="#ffffff" fill-opacity="1"><g transform="translate(302.212331, 547.604539)"><g><path d="M 76.234375 -85.578125 L 35.515625 -85.578125 L 35.515625 -62 L 72.25 -62 L 72.25 -41.03125 L 35.515625 -41.03125 L 35.515625 0 L 12.25 0 L 12.25 -107.15625 L 76.234375 -107.15625 Z M 76.234375 -85.578125 "/></g></g></g><g fill="#ffffff" fill-opacity="1"><g transform="translate(376.760166, 547.604539)"><g><path d="M 10.71875 0 L 10.71875 -112.515625 L 33.0625 -112.515625 L 33.0625 0 Z M 10.71875 0 "/></g></g></g><g fill="#ffffff" fill-opacity="1"><g transform="translate(413.191896, 547.604539)"><g><path d="M 67.8125 -82.65625 L 91.6875 -82.65625 L 55.5625 -1.078125 C 52.300781 6.378906 48.984375 12.378906 45.609375 16.921875 C 42.242188 21.460938 38.414062 24.75 34.125 26.78125 C 29.84375 28.820312 24.59375 29.84375 18.375 29.84375 L 9.1875 29.84375 L 9.1875 9.640625 L 16.984375 9.640625 C 20.554688 9.640625 23.390625 9.226562 25.484375 8.40625 C 27.578125 7.59375 29.363281 6.085938 30.84375 3.890625 C 32.320312 1.703125 33.929688 -1.476562 35.671875 -5.65625 L 35.96875 -6.28125 L 0.921875 -82.65625 L 25.265625 -82.65625 L 47.296875 -31.84375 Z M 67.8125 -82.65625 "/></g></g></g><g fill="#ffffff" fill-opacity="1"><g transform="translate(497.995868, 547.604539)"><g><path d="M 50.0625 2.296875 C 41.488281 2.296875 33.832031 0.382812 27.09375 -3.4375 C 20.351562 -7.269531 15.046875 -12.476562 11.171875 -19.0625 C 7.296875 -25.644531 5.359375 -33.066406 5.359375 -41.328125 C 5.359375 -49.703125 7.296875 -57.175781 11.171875 -63.75 C 15.046875 -70.332031 20.351562 -75.507812 27.09375 -79.28125 C 33.832031 -83.0625 41.488281 -84.953125 50.0625 -84.953125 C 58.53125 -84.953125 66.128906 -83.0625 72.859375 -79.28125 C 79.597656 -75.507812 84.90625 -70.332031 88.78125 -63.75 C 92.664062 -57.175781 94.609375 -49.703125 94.609375 -41.328125 C 94.609375 -33.066406 92.664062 -25.644531 88.78125 -19.0625 C 84.90625 -12.476562 79.597656 -7.269531 72.859375 -3.4375 C 66.128906 0.382812 58.53125 2.296875 50.0625 2.296875 Z M 50.0625 -18.671875 C 56.488281 -18.671875 61.742188 -20.765625 65.828125 -24.953125 C 69.910156 -29.140625 71.953125 -34.597656 71.953125 -41.328125 C 71.953125 -48.066406 69.910156 -53.523438 65.828125 -57.703125 C 61.742188 -61.890625 56.488281 -63.984375 50.0625 -63.984375 C 43.53125 -63.984375 38.222656 -61.890625 34.140625 -57.703125 C 30.054688 -53.523438 28.015625 -48.066406 28.015625 -41.328125 C 28.015625 -34.597656 30.054688 -29.140625 34.140625 -24.953125 C 38.222656 -20.765625 43.53125 -18.671875 50.0625 -18.671875 Z M 50.0625 -18.671875 "/></g></g></g><g fill="#ffffff" fill-opacity="1"><g transform="translate(590.606758, 547.604539)"><g><path d="M 57.859375 -84.65625 C 67.253906 -84.65625 74.679688 -81.515625 80.140625 -75.234375 C 85.597656 -68.960938 88.328125 -60.570312 88.328125 -50.0625 L 88.328125 0 L 65.984375 0 L 65.984375 -46.53125 C 65.984375 -58.882812 61.1875 -65.0625 51.59375 -65.0625 C 45.875 -65.0625 41.351562 -63.117188 38.03125 -59.234375 C 34.71875 -55.359375 33.0625 -50.101562 33.0625 -43.46875 L 33.0625 0 L 10.71875 0 L 10.71875 -82.65625 L 26.015625 -82.65625 L 30.46875 -72.40625 C 33.53125 -76.175781 37.457031 -79.160156 42.25 -81.359375 C 47.039062 -83.554688 52.242188 -84.65625 57.859375 -84.65625 Z M 57.859375 -84.65625 "/></g></g></g><g fill="#ffffff" fill-opacity="1"><g transform="translate(681.380727, 547.604539)"><g><path d="M 90.921875 -41.640625 C 90.921875 -39.492188 90.769531 -37.300781 90.46875 -35.0625 L 28.015625 -35.0625 C 28.929688 -29.445312 31.175781 -25.132812 34.75 -22.125 C 38.320312 -19.113281 42.8125 -17.609375 48.21875 -17.609375 C 52.09375 -17.609375 55.5625 -18.445312 58.625 -20.125 C 61.6875 -21.8125 64.035156 -24.132812 65.671875 -27.09375 L 89.25 -27.09375 C 86.1875 -18.113281 80.976562 -10.96875 73.625 -5.65625 C 66.28125 -0.351562 57.8125 2.296875 48.21875 2.296875 C 40.050781 2.296875 32.726562 0.382812 26.25 -3.4375 C 19.769531 -7.269531 14.664062 -12.476562 10.9375 -19.0625 C 7.21875 -25.644531 5.359375 -33.066406 5.359375 -41.328125 C 5.359375 -49.597656 7.21875 -57.023438 10.9375 -63.609375 C 14.664062 -70.191406 19.769531 -75.394531 26.25 -79.21875 C 32.726562 -83.039062 40.050781 -84.953125 48.21875 -84.953125 C 56.6875 -84.953125 64.132812 -82.988281 70.5625 -79.0625 C 77 -75.132812 82 -69.90625 85.5625 -63.375 C 89.132812 -56.84375 90.921875 -49.597656 90.921875 -41.640625 Z M 48.21875 -65.984375 C 43.21875 -65.984375 39.007812 -64.601562 35.59375 -61.84375 C 32.175781 -59.082031 29.851562 -55.253906 28.625 -50.359375 L 68.578125 -50.359375 C 65.316406 -60.773438 58.53125 -65.984375 48.21875 -65.984375 Z M 48.21875 -65.984375 "/></g></g></g></svg>